<svg xmlns="http://www.w3.org/2000/svg" width="51" height="40" viewBox="0 0 51 40"><defs><clipPath id="64o8a"><path d="M0 .41h50.201v21.412H0z"/></clipPath></defs><g><g><g><g/><g clip-path="url(#64o8a)"><path fill="#fff" d="M21.513 21.821c-6.426 0-12.853.005-19.279-.003C.817 21.816.08 21.22.006 20.086c-.073-1.122.566-1.877 1.688-1.964.423-.033.85-.014 1.276-.014 12.256 0 24.513-.028 36.77.02 2.943.01 5.178-1.037 6.353-3.771 1.256-2.922.972-5.756-1.117-8.246-1.438-1.714-3.354-2.363-5.508-1.75-2.494.712-3.787 2.608-4.357 5.041-.145.617-.17 1.263-.25 1.895-.114.902-.557 1.53-1.511 1.608-1.032.085-1.71-.53-1.744-1.462-.044-1.168.077-2.381.36-3.517 1.04-4.173 4.223-7.055 8.222-7.47 2.516-.262 4.687.624 6.523 2.317 4.626 4.264 4.658 12.293.073 16.597-1.716 1.61-3.755 2.45-6.12 2.45-6.384.003-12.767.001-19.151.001"/></g></g><g><path fill="#fff" d="M18.803 24.217c3.36-.002 6.72-.016 10.08.003 3.713.02 6.551 2.513 7.2 6.282.688 4.01-1.402 8.004-4.799 9.171-3.879 1.333-8.15-1.565-8.78-5.99-.101-.703-.24-1.517.015-2.121.234-.554 1.007-1.27 1.486-1.23.579.048 1.228.731 1.6 1.3.296.454.182 1.16.32 1.737.396 1.655 1.802 2.881 3.292 2.913 1.458.032 2.858-1.037 3.342-2.678.898-3.051-.949-5.798-3.986-5.719-6.63.174-13.269.054-19.904.054-.34 0-.682.017-1.02-.01-1.149-.095-1.808-.798-1.799-1.9.009-1.12.644-1.792 1.852-1.8 3.7-.027 7.401-.01 11.101-.012"/></g><g><path fill="#fff" d="M12.26 15.762c-2.807.002-5.614.008-8.42 0-1.624-.004-2.347-.577-2.35-1.827-.003-1.291.762-1.89 2.446-1.891 5.36-.004 10.719 0 16.078-.003 2.037-.002 3.222-.843 3.831-2.693.594-1.806.003-3.917-1.39-4.961-1.853-1.389-4.39-.448-5.156 1.941-.18.56-.24 1.164-.313 1.753-.122.982-.66 1.616-1.631 1.64-.993.025-1.515-.658-1.69-1.595-.438-2.342 1.373-5.873 3.71-7.248 2.281-1.343 5.058-1.132 7.155.544 3.945 3.155 3.962 9.964-.116 12.938-1.09.795-2.624 1.237-3.992 1.34-2.706.205-5.44.06-8.161.062"/></g></g></g></svg>