<?xml version="1.0" encoding="UTF-8"?>
<svg version="1.1" xmlns="http://www.w3.org/2000/svg" width="200" height="55">
<path d="M0 0 C4.39629767 3.98733975 6.35111399 8.08279792 7.1875 13.9375 C6.32727427 19.95908014 4.41709797 24.06088121 -0.375 27.875 C-4.92637934 30.29594646 -8.1734303 30.85873522 -13.3125 30.4375 C-17.71103211 29.00141209 -20.67348392 27.15844122 -23.75 23.6875 C-26.21963981 18.55064919 -26.56589352 14.50084722 -25.875 8.875 C-23.74402934 4.18686454 -20.57351172 1.28353424 -16.3125 -1.5625 C-10.82023443 -3.5193899 -5.14638006 -2.42753776 0 0 Z " fill="#FFFFFF" transform="translate(106.3125,16.5625)"/>
<path d="M0 0 C3.63 0 7.26 0 11 0 C11.33 3.63 11.66 7.26 12 11 C13.32 7.37 14.64 3.74 16 0 C19.96 0 23.92 0 28 0 C26.77256284 6.13718582 24.26790775 11.3798491 21.64501953 17.01049805 C20.7565101 18.92348356 19.88373352 20.84312212 19.01171875 22.76367188 C12.3045044 37.3477478 12.3045044 37.3477478 7 40 C4.7927077 40.07092842 2.58332548 40.08415025 0.375 40.0625 C-0.81351563 40.05347656 -2.00203125 40.04445312 -3.2265625 40.03515625 C-4.14179687 40.02355469 -5.05703125 40.01195312 -6 40 C-5.8864371 38.35333797 -5.75882619 36.70763918 -5.625 35.0625 C-5.55539063 34.14597656 -5.48578125 33.22945312 -5.4140625 32.28515625 C-5.27742188 31.53105469 -5.14078125 30.77695312 -5 30 C-2.3333581 28.66667905 -0.83319697 29.32897967 2 30 C1.67 29.01 1.34 28.02 1 27 C-0.07419037 18.02189035 -0.1218302 9.02897181 0 0 Z " fill="#FFFFFF" transform="translate(55,15)"/>
<path d="M0 0 C2.3987108 4.99731416 1.74158669 9.62890282 1.5 15.125 C-3.78 15.125 -9.06 15.125 -14.5 15.125 C-14.17 16.445 -13.84 17.765 -13.5 19.125 C-12.51 19.125 -11.52 19.125 -10.5 19.125 C-10.17 18.135 -9.84 17.145 -9.5 16.125 C-6.2 16.125 -2.9 16.125 0.5 16.125 C0.04786421 20.98545979 -1.03141261 23.65641261 -4.5 27.125 C-8.46338566 29.37448916 -11.99821502 29.52694509 -16.5 29.125 C-19.68459646 27.60507896 -22.23579966 25.84204041 -24.5 23.125 C-26.36107243 17.5417827 -26.02996207 11.99545437 -24.4375 6.375 C-21.62175249 1.65181063 -18.1945323 -1.76955085 -13.0625 -3.875 C-8.05918156 -3.875 -4.04007208 -3.03005406 0 0 Z M-11.5 5.125 C-12.49 6.61 -12.49 6.61 -13.5 8.125 C-11.52 8.125 -9.54 8.125 -7.5 8.125 C-7.83 7.135 -8.16 6.145 -8.5 5.125 C-9.49 5.125 -10.48 5.125 -11.5 5.125 Z " fill="#FFFFFF" transform="translate(164.5,17.875)"/>
<path d="M0 0 C0.9583374 0.00523682 1.9166748 0.01047363 2.90405273 0.01586914 C4.45576172 0.02070313 4.45576172 0.02070313 6.03881836 0.02563477 C7.12743164 0.03401367 8.21604492 0.04239258 9.33764648 0.05102539 C10.97636719 0.05779297 10.97636719 0.05779297 12.64819336 0.06469727 C15.35723144 0.07652713 18.06616248 0.09300996 20.77514648 0.11352539 C20.11514648 3.08352539 19.45514648 6.05352539 18.77514648 9.11352539 C14.81514648 9.11352539 10.85514648 9.11352539 6.77514648 9.11352539 C6.77514648 10.43352539 6.77514648 11.75352539 6.77514648 13.11352539 C9.74514648 13.44352539 12.71514648 13.77352539 15.77514648 14.11352539 C15.44514648 17.08352539 15.11514648 20.05352539 14.77514648 23.11352539 C11.14514648 23.11352539 7.51514648 23.11352539 3.77514648 23.11352539 C3.63077148 24.51602539 3.48639648 25.91852539 3.33764648 27.36352539 C3.02227979 30.42708756 2.52943707 33.09636307 1.77514648 36.11352539 C-2.18485352 36.11352539 -6.14485352 36.11352539 -10.22485352 36.11352539 C-8.99914856 27.9793016 -7.39510982 19.96613862 -5.66235352 11.92602539 C-5.44039307 10.88567139 -5.21843262 9.84531738 -4.98974609 8.7734375 C-4.77729248 7.79898682 -4.56483887 6.82453613 -4.34594727 5.82055664 C-4.15444092 4.93859619 -3.96293457 4.05663574 -3.765625 3.14794922 C-3.02551521 0.3635994 -2.91579708 0.14878148 0 0 Z " fill="#FFFFFF" transform="translate(20.224853515625,9.886474609375)"/>
<path d="M0 0 C3.63 0 7.26 0 11 0 C11.33 3.63 11.66 7.26 12 11 C12.639375 9.370625 13.27875 7.74125 13.9375 6.0625 C15.875 1.125 15.875 1.125 17 0 C19.01964199 -0.07244053 21.04167124 -0.08377188 23.0625 -0.0625 C24.16722656 -0.05347656 25.27195313 -0.04445313 26.41015625 -0.03515625 C27.26480469 -0.02355469 28.11945313 -0.01195312 29 0 C24.80604855 10.55864159 19.91508914 20.76290801 15 31 C10.71 31 6.42 31 2 31 C-0.29612756 10.06833713 -0.29612756 10.06833713 0 0 Z " fill="#FFFFFF" transform="translate(114,15)"/>
<path d="M0 0 C-0.66 3.63 -1.32 7.26 -2 11 C-3.093125 11.0825 -4.18625 11.165 -5.3125 11.25 C-8.9248946 11.6366338 -8.9248946 11.6366338 -10.62890625 13.59765625 C-12.41426195 16.72584358 -12.95864391 19.6543482 -13.625 23.1875 C-14.9133758 29.9133758 -14.9133758 29.9133758 -16 31 C-17.85287502 31.07226502 -19.70833878 31.0838122 -21.5625 31.0625 C-22.57441406 31.05347656 -23.58632812 31.04445312 -24.62890625 31.03515625 C-25.41136719 31.02355469 -26.19382813 31.01195312 -27 31 C-26.36810218 23.97649204 -25.05780811 17.29544275 -23.4375 10.4375 C-23.20353516 9.42880859 -22.96957031 8.42011719 -22.72851562 7.38085938 C-22.15691285 4.91946783 -21.5806646 2.45926653 -21 0 C-16.66666667 0 -12.33333333 0 -8 0 C-5 -1 -5 -1 0 0 Z " fill="#FFFFFF" transform="translate(192,15)"/>
<path d="M0 0 C3.96 0 7.92 0 12 0 C9.36 12.54 6.72 25.08 4 38 C0.04 38 -3.92 38 -8 38 C-2.81321185 11.69703872 -2.81321185 11.69703872 0 0 Z " fill="#FFFFFF" transform="translate(43,8)"/>
</svg>
