<svg xmlns="http://www.w3.org/2000/svg" width="50" height="30" viewBox="0 0 50 30"><defs><clipPath id="bbafa"><path d="M0 .5h50v29.375H0z"/></clipPath></defs><g><g><g/><g clip-path="url(#bbafa)"><path fill="#fff" d="M19.003 9.025c1.476-2.427 2.891-4.763 4.316-7.094 1.166-1.908 2.195-1.907 3.389-.004 1.45 2.311 2.895 4.625 4.428 7.073.82-1.34 1.544-2.542 2.287-3.732.967-1.55 2.1-1.598 3.048-.09a8419.352 8419.352 0 0 1 13.083 20.897c.702 1.124.56 2.103-.315 2.611-.829.483-1.596.168-2.322-.99-3.68-5.872-7.355-11.75-11.035-17.624-.256-.408-.534-.802-.913-1.367-.652 1.07-1.267 1.95-1.721 2.906-.138.29.079.85.289 1.19 2.666 4.304 5.36 8.591 8.046 12.884.22.352.47.691.639 1.067.396.881.212 1.653-.636 2.143-.845.488-1.533.139-2.015-.615-1.23-1.923-2.433-3.862-3.648-5.795l-3.697-5.88c-1.188 1.195-2.285 2.306-3.39 3.408-1.134 1.13-1.591 1.156-2.878.16-.92-.711-1.853-1.41-2.733-2.167-.541-.466-.963-.432-1.533-.038-2.32 1.607-4.69 3.145-6.997 4.77-.518.365-.926.936-1.276 1.481-.962 1.503-1.874 3.038-2.792 4.568-.53.884-1.202 1.415-2.247.864-.857-.451-1.016-1.432-.38-2.489 2.722-4.513 5.421-9.042 8.233-13.499.729-1.154.856-2.042-.023-3.095-.418-.5-.71-1.107-1.165-1.836-.346.505-.628.887-.879 1.287-3.637 5.803-7.27 11.609-10.903 17.414-.154.246-.3.499-.47.734-.505.704-1.195.937-1.959.54-.82-.428-.994-1.19-.702-2.032.12-.346.356-.654.554-.97 4.204-6.721 8.41-13.442 12.618-20.16 1.226-1.957 2.261-1.962 3.452-.022.65 1.061 1.295 2.126 1.945 3.188zm-.65 7.05l.194.208c.921-.62 1.864-1.207 2.756-1.865.913-.675 1.716-.625 2.58.1 1.071.9 2.198 1.734 3.048 2.398l3.48-3.23-5.386-8.58z"/></g></g></g></svg>