<svg xmlns="http://www.w3.org/2000/svg" width="43" height="51" viewBox="0 0 43 51"><defs><clipPath id="8e4fa"><path d="M0 .5h42.939v50H0z"/></clipPath></defs><g><g><g><g/><g clip-path="url(#8e4fa)"><path fill="#fff" d="M20.417 23.193l6.466-20.475c.11-.347.12-.797.351-1.018.513-.493 1.122-1.172 1.718-1.2.486-.021 1.285.7 1.473 1.252 1.306 3.833 2.492 7.707 3.709 11.57 2.822 8.967 5.642 17.934 8.458 26.903.876 2.79.149 3.61-2.81 3.332-3.04-.286-6.086-.49-9.3-.745 0 1.995-.008 3.804.004 5.613.007 1.117-.334 2.028-1.589 2.073-1.375.05-1.718-.91-1.713-2.09.009-1.764.003-3.528.003-5.518-1.84.238-3.578-.213-5.273.922-1.117.747-2.562 1.06-3.902 1.4-1.017.257-1.908-.137-2.072-1.316-.167-1.2.46-1.805 1.654-1.982 5.387-.803 6.957-6.913 4.58-10.64-.305-.478-.625-1.06-1.09-1.302-1.924-1.002-2.769-2.638-3.527-4.61-1.143-2.972-4.346-4.264-7.197-3.332-2.974.972-5.036 4.275-4.42 7.393.296 1.499.06 2.508-1.15 3.546-1.446 1.24-1.832 2.985-1.188 4.845.595 1.719 1.736 2.78 3.622 2.963 1.19.116 2.02.735 1.804 2.032-.216 1.3-1.233 1.548-2.386 1.401-5.699-.725-8.604-7.67-5.16-12.538.768-1.086 1.098-2.085 1.094-3.396-.013-5.05 3.465-9.14 8.436-9.87 3.291-.482 6.007.791 8.192 3.242zm18.585 16.826L28.988 8.189c-2.215 6.014-4.118 11.987-5.947 17.982-.12.396.265.996.513 1.447.89 1.618 2.268 3.12 2.63 4.841.46 2.19.11 4.551.11 6.999.604.212.926-.19.901-1.163-.039-1.507-.011-3.016 0-4.524.007-1.012.427-1.759 1.511-1.81 1.249-.06 1.762.716 1.771 1.874.015 1.848.004 3.695.004 5.529z"/></g></g><g><path fill="#fff" d="M10.926 36.023c0-1.427-.175-2.546.063-3.57.15-.644.843-1.507 1.427-1.63 1.013-.212 1.563.615 1.58 1.65.02 1.129.005 2.257.005 3.667.95-.465 1.638-.769 2.295-1.13.976-.538 1.947-.712 2.548.415.63 1.183-.055 1.953-1.104 2.489-.879.448-1.832.808-2.594 1.408-.519.409-1.05 1.148-1.083 1.766-.127 2.332-.063 4.676-.048 7.015.008 1.171-.105 2.359-1.598 2.335-1.38-.021-1.517-1.142-1.506-2.268.022-2.287-.042-4.576.027-6.86.031-1.056-.228-1.77-1.24-2.235-.844-.388-1.63-.916-2.408-1.431-.852-.564-1.167-1.374-.614-2.279.56-.917 1.411-.951 2.306-.455.538.3 1.07.612 1.944 1.113"/></g></g></g></svg>